# xmcd
#
# Track frame offsets:
#	150
#	13644
#	35127
#	82578
#	97424
#	142169
#	157080
#	176436
#	199641
#	243305
#	261922
#	316241
#
# Disc length: 4568 seconds
#
# Revision: 1
# Processed by: cddbd v1.5.2PL0 Copyright (c) Steve Scherf et al.
# Submitted via: audiograbber 1.83.01
#
DISCID=a211d60c
DTITLE=Albert Collins and The Icebreakers - The Iceman At Mount Fuji
DYEAR=2005
DGENRE=Blues
TTITLE0=Iceman
TTITLE1=Put The Shoe On the Other Foot
TTITLE2=Light's Are On But Nobody's Home
TTITLE3=If You Love Me Like You Say
TTITLE4=Same Old Thing
TTITLE5=Travelin' South
TTITLE6=Iceman [Extended Jam][2nd Version]
TTITLE7=Put The Shoe On the Other Foot [2nd Version]
TTITLE8=Light's Are On But Nobody's Home [2nd Version]
TTITLE9=Honey Hush
TTITLE10=Same Old Thing [2nd Version]
TTITLE11=Frosty
EXTD=
EXTT0=
EXTT1=
EXTT2=
EXTT3=
EXTT4=
EXTT5=
EXTT6=
EXTT7=
EXTT8=
EXTT9=
EXTT10=
EXTT11=
PLAYORDER=
